{
	"asset":{
		"generator":"Khronos glTF Blender I/O v4.5.47",
		"version":"2.0"
	},
	"scene":0,
	"scenes":[
		{
			"name":"Scene",
			"nodes":[
				0
			]
		}
	],
	"nodes":[
		{
			"mesh":0,
			"name":"Cube",
			"translation":[
				-0.13513843715190887,
				2.8021373748779297,
				-0.11328521370887756
			]
		}
	],
	"materials":[
		{
			"doubleSided":true,
			"name":"Material",
			"pbrMetallicRoughness":{
				"baseColorFactor":[
					0.800000011920929,
					0.800000011920929,
					0.800000011920929,
					1
				],
				"metallicFactor":0,
				"roughnessFactor":0.5
			}
		}
	],
	"meshes":[
		{
			"name":"Cube",
			"primitives":[
				{
					"attributes":{
						"POSITION":0,
						"NORMAL":1,
						"TEXCOORD_0":2
					},
					"indices":3,
					"material":0
				}
			]
		}
	],
	"accessors":[
		{
			"bufferView":0,
			"componentType":5126,
			"count":122654,
			"max":[
				2.817655563354492,
				4.182219982147217,
				1.6136980056762695
			],
			"min":[
				-3.30690336227417,
				-2.773988723754883,
				-1.6497907638549805
			],
			"type":"VEC3"
		},
		{
			"bufferView":1,
			"componentType":5126,
			"count":122654,
			"type":"VEC3"
		},
		{
			"bufferView":2,
			"componentType":5126,
			"count":122654,
			"type":"VEC2"
		},
		{
			"bufferView":3,
			"componentType":5125,
			"count":216576,
			"type":"SCALAR"
		}
	],
	"bufferViews":[
		{
			"buffer":0,
			"byteLength":1471848,
			"byteOffset":0,
			"target":34962
		},
		{
			"buffer":0,
			"byteLength":1471848,
			"byteOffset":1471848,
			"target":34962
		},
		{
			"buffer":0,
			"byteLength":981232,
			"byteOffset":2943696,
			"target":34962
		},
		{
			"buffer":0,
			"byteLength":866304,
			"byteOffset":3924928,
			"target":34963
		}
	],
	"buffers":[
		{
			"byteLength":4791232,
			"uri":"animal.bin"
		}
	]
}
