{
	"asset":{
		"generator":"Khronos glTF Blender I/O v4.5.47",
		"version":"2.0"
	},
	"scene":0,
	"scenes":[
		{
			"name":"Scene",
			"nodes":[
				0
			]
		}
	],
	"nodes":[
		{
			"mesh":0,
			"name":"Torus"
		}
	],
	"meshes":[
		{
			"name":"Torus",
			"primitives":[
				{
					"attributes":{
						"POSITION":0,
						"NORMAL":1,
						"TEXCOORD_0":2
					},
					"indices":3
				}
			]
		}
	],
	"accessors":[
		{
			"bufferView":0,
			"componentType":5126,
			"count":16896,
			"max":[
				1.8660414218902588,
				1.898427128791809,
				0.9558348655700684
			],
			"min":[
				-1.8657307624816895,
				-1.833343744277954,
				-0.9141198396682739
			],
			"type":"VEC3"
		},
		{
			"bufferView":1,
			"componentType":5126,
			"count":16896,
			"type":"VEC3"
		},
		{
			"bufferView":2,
			"componentType":5126,
			"count":16896,
			"type":"VEC2"
		},
		{
			"bufferView":3,
			"componentType":5123,
			"count":25344,
			"type":"SCALAR"
		}
	],
	"bufferViews":[
		{
			"buffer":0,
			"byteLength":202752,
			"byteOffset":0,
			"target":34962
		},
		{
			"buffer":0,
			"byteLength":202752,
			"byteOffset":202752,
			"target":34962
		},
		{
			"buffer":0,
			"byteLength":135168,
			"byteOffset":405504,
			"target":34962
		},
		{
			"buffer":0,
			"byteLength":50688,
			"byteOffset":540672,
			"target":34963
		}
	],
	"buffers":[
		{
			"byteLength":591360,
			"uri":"engine.bin"
		}
	]
}
