{
	"asset":{
		"generator":"Khronos glTF Blender I/O v4.5.47",
		"version":"2.0"
	},
	"extensionsUsed":[
		"KHR_materials_emissive_strength",
		"KHR_materials_unlit"
	],
	"scene":0,
	"scenes":[
		{
			"name":"Scene",
			"nodes":[
				0
			]
		}
	],
	"nodes":[
		{
			"mesh":0,
			"name":"Cube",
			"scale":[
				0.2872993052005768,
				0.2872993052005768,
				0.19421179592609406
			],
			"translation":[
				-1.4875736236572266,
				0.0782080888748169,
				0.0011127993930131197
			]
		}
	],
	"materials":[
		{
			"doubleSided":true,
			"name":"Material.001"
		},
		{
			"doubleSided":true,
			"name":"Material.030"
		},
		{
			"doubleSided":true,
			"name":"Material.029"
		},
		{
			"doubleSided":true,
			"name":"Material.016"
		},
		{
			"doubleSided":true,
			"name":"Material.015"
		},
		{
			"doubleSided":true,
			"extensions":{
				"KHR_materials_unlit":{}
			},
			"name":"Material.014",
			"pbrMetallicRoughness":{
				"baseColorFactor":[
					0.8000000715255737,
					0,
					0.003042803844437003,
					1
				],
				"metallicFactor":0,
				"roughnessFactor":0.9
			}
		},
		{
			"doubleSided":true,
			"emissiveFactor":[
				0.32205520043260755,
				0.8894705064611508,
				1
			],
			"extensions":{
				"KHR_materials_emissive_strength":{
					"emissiveStrength":1.3993812166954456
				}
			},
			"name":"Material.011",
			"pbrMetallicRoughness":{
				"baseColorFactor":[
					0,
					0,
					0,
					1
				]
			}
		},
		{
			"doubleSided":true,
			"name":"Material.012"
		},
		{
			"doubleSided":true,
			"name":"Material.007",
			"pbrMetallicRoughness":{
				"baseColorFactor":[
					0.049370117485523224,
					0.049200303852558136,
					0.05221778154373169,
					1
				],
				"metallicFactor":0,
				"roughnessFactor":0.5
			}
		},
		{
			"doubleSided":true,
			"name":"Material.006"
		},
		{
			"doubleSided":true,
			"name":"Material.004"
		},
		{
			"doubleSided":true,
			"name":"Material.005"
		},
		{
			"doubleSided":true,
			"name":"Material.003"
		},
		{
			"doubleSided":true,
			"name":"Material.002"
		},
		{
			"doubleSided":true,
			"emissiveFactor":[
				0.019463888026277302,
				1,
				0.022734273520773035
			],
			"extensions":{
				"KHR_materials_emissive_strength":{
					"emissiveStrength":1.4400000905990566
				}
			},
			"name":"Material.010",
			"pbrMetallicRoughness":{
				"baseColorFactor":[
					0,
					0,
					0,
					1
				]
			}
		},
		{
			"doubleSided":true,
			"emissiveFactor":[
				0.019463888026277302,
				1,
				0.022734273520773035
			],
			"extensions":{
				"KHR_materials_emissive_strength":{
					"emissiveStrength":1.4400000905990566
				}
			},
			"name":"Material.008",
			"pbrMetallicRoughness":{
				"baseColorFactor":[
					0,
					0,
					0,
					1
				]
			}
		},
		{
			"doubleSided":true,
			"emissiveFactor":[
				0.019463888026277302,
				1,
				0.022734273520773035
			],
			"extensions":{
				"KHR_materials_emissive_strength":{
					"emissiveStrength":1.4400000905990566
				}
			},
			"name":"Material.009",
			"pbrMetallicRoughness":{
				"baseColorFactor":[
					0,
					0,
					0,
					1
				]
			}
		},
		{
			"doubleSided":true,
			"emissiveFactor":[
				1,
				0.000998631438042527,
				0
			],
			"extensions":{
				"KHR_materials_emissive_strength":{
					"emissiveStrength":1.214720681457493
				}
			},
			"name":"Material.013",
			"pbrMetallicRoughness":{
				"baseColorFactor":[
					0,
					0,
					0,
					1
				]
			}
		},
		{
			"doubleSided":true,
			"name":"Material.017"
		}
	],
	"meshes":[
		{
			"name":"Cube.001",
			"primitives":[
				{
					"attributes":{
						"POSITION":0,
						"NORMAL":1
					},
					"indices":2,
					"material":0
				},
				{
					"attributes":{
						"POSITION":3,
						"NORMAL":4
					},
					"indices":5,
					"material":1
				},
				{
					"attributes":{
						"POSITION":6,
						"NORMAL":7
					},
					"indices":8,
					"material":2
				},
				{
					"attributes":{
						"POSITION":9,
						"NORMAL":10
					},
					"indices":11,
					"material":3
				},
				{
					"attributes":{
						"POSITION":12,
						"NORMAL":13
					},
					"indices":14,
					"material":4
				},
				{
					"attributes":{
						"POSITION":15,
						"NORMAL":16
					},
					"indices":17,
					"material":5
				},
				{
					"attributes":{
						"POSITION":18,
						"NORMAL":19
					},
					"indices":20,
					"material":6
				},
				{
					"attributes":{
						"POSITION":21,
						"NORMAL":22
					},
					"indices":23,
					"material":7
				},
				{
					"attributes":{
						"POSITION":24,
						"NORMAL":25
					},
					"indices":26,
					"material":8
				},
				{
					"attributes":{
						"POSITION":27,
						"NORMAL":28
					},
					"indices":29,
					"material":9
				},
				{
					"attributes":{
						"POSITION":30,
						"NORMAL":31
					},
					"indices":32,
					"material":10
				},
				{
					"attributes":{
						"POSITION":33,
						"NORMAL":34
					},
					"indices":35,
					"material":11
				},
				{
					"attributes":{
						"POSITION":36,
						"NORMAL":37
					},
					"indices":38,
					"material":12
				},
				{
					"attributes":{
						"POSITION":39,
						"NORMAL":40
					},
					"indices":41,
					"material":13
				},
				{
					"attributes":{
						"POSITION":42,
						"NORMAL":43
					},
					"indices":44,
					"material":14
				},
				{
					"attributes":{
						"POSITION":45,
						"NORMAL":46
					},
					"indices":44,
					"material":15
				},
				{
					"attributes":{
						"POSITION":47,
						"NORMAL":48
					},
					"indices":44,
					"material":16
				},
				{
					"attributes":{
						"POSITION":49,
						"NORMAL":50
					},
					"indices":20,
					"material":17
				},
				{
					"attributes":{
						"POSITION":51,
						"NORMAL":52
					},
					"indices":53,
					"material":18
				}
			]
		}
	],
	"accessors":[
		{
			"bufferView":0,
			"componentType":5126,
			"count":1558070,
			"max":[
				9.945645332336426,
				6.561654567718506,
				1.9559874534606934
			],
			"min":[
				-1.501737117767334,
				-1.4589335918426514,
				-1.3376073837280273
			],
			"type":"VEC3"
		},
		{
			"bufferView":1,
			"componentType":5126,
			"count":1558070,
			"type":"VEC3"
		},
		{
			"bufferView":2,
			"componentType":5125,
			"count":3909468,
			"type":"SCALAR"
		},
		{
			"bufferView":3,
			"componentType":5126,
			"count":261,
			"max":[
				2.7485809326171875,
				3.0143625736236572,
				1.0736844539642334
			],
			"min":[
				1.925646185874939,
				2.5060617923736572,
				-1.1147421598434448
			],
			"type":"VEC3"
		},
		{
			"bufferView":4,
			"componentType":5126,
			"count":261,
			"type":"VEC3"
		},
		{
			"bufferView":5,
			"componentType":5123,
			"count":660,
			"type":"SCALAR"
		},
		{
			"bufferView":6,
			"componentType":5126,
			"count":88,
			"max":[
				1.1109399795532227,
				5.804924011230469,
				-0.9029250144958496
			],
			"min":[
				0.17070016264915466,
				4.892414569854736,
				-1.293930172920227
			],
			"type":"VEC3"
		},
		{
			"bufferView":7,
			"componentType":5126,
			"count":88,
			"type":"VEC3"
		},
		{
			"bufferView":8,
			"componentType":5123,
			"count":516,
			"type":"SCALAR"
		},
		{
			"bufferView":9,
			"componentType":5126,
			"count":480,
			"max":[
				2.2831907272338867,
				5.269668102264404,
				0.5969003438949585
			],
			"min":[
				1.0917842388153076,
				3.65329647064209,
				-0.588605523109436
			],
			"type":"VEC3"
		},
		{
			"bufferView":10,
			"componentType":5126,
			"count":480,
			"type":"VEC3"
		},
		{
			"bufferView":11,
			"componentType":5123,
			"count":2844,
			"type":"SCALAR"
		},
		{
			"bufferView":12,
			"componentType":5126,
			"count":256,
			"max":[
				17.75885772705078,
				6.269813537597656,
				0.8377676010131836
			],
			"min":[
				9.571035385131836,
				5.130481243133545,
				-0.8476559519767761
			],
			"type":"VEC3"
		},
		{
			"bufferView":13,
			"componentType":5126,
			"count":256,
			"type":"VEC3"
		},
		{
			"bufferView":14,
			"componentType":5123,
			"count":1524,
			"type":"SCALAR"
		},
		{
			"bufferView":15,
			"componentType":5126,
			"count":24,
			"max":[
				7.377823352813721,
				3.9319024085998535,
				-1.0277422666549683
			],
			"min":[
				7.277716159820557,
				3.8317952156066895,
				-1.3376185894012451
			],
			"type":"VEC3"
		},
		{
			"bufferView":16,
			"componentType":5126,
			"count":24,
			"type":"VEC3"
		},
		{
			"bufferView":17,
			"componentType":5123,
			"count":36,
			"type":"SCALAR"
		},
		{
			"bufferView":18,
			"componentType":5126,
			"count":32,
			"max":[
				9.73851490020752,
				3.4365227222442627,
				0.6237868070602417
			],
			"min":[
				9.73851490020752,
				2.57277512550354,
				-0.6539633274078369
			],
			"type":"VEC3"
		},
		{
			"bufferView":19,
			"componentType":5126,
			"count":32,
			"type":"VEC3"
		},
		{
			"bufferView":20,
			"componentType":5123,
			"count":90,
			"type":"SCALAR"
		},
		{
			"bufferView":21,
			"componentType":5126,
			"count":2472,
			"max":[
				9.887014389038086,
				4.4714555740356445,
				1.9604510068893433
			],
			"min":[
				5.805606842041016,
				2.4138941764831543,
				-1.266340970993042
			],
			"type":"VEC3"
		},
		{
			"bufferView":22,
			"componentType":5126,
			"count":2472,
			"type":"VEC3"
		},
		{
			"bufferView":23,
			"componentType":5123,
			"count":5382,
			"type":"SCALAR"
		},
		{
			"bufferView":24,
			"componentType":5126,
			"count":251,
			"max":[
				2.6132192611694336,
				4.971299648284912,
				-0.8856295943260193
			],
			"min":[
				1.8897868394851685,
				4.555734157562256,
				-1.0797299146652222
			],
			"type":"VEC3"
		},
		{
			"bufferView":25,
			"componentType":5126,
			"count":251,
			"type":"VEC3"
		},
		{
			"bufferView":26,
			"componentType":5123,
			"count":636,
			"type":"SCALAR"
		},
		{
			"bufferView":27,
			"componentType":5126,
			"count":264,
			"max":[
				2.752009868621826,
				5.302482604980469,
				0.9664744734764099
			],
			"min":[
				-0.8727620840072632,
				-1.467391014099121,
				-1.0012136697769165
			],
			"type":"VEC3"
		},
		{
			"bufferView":28,
			"componentType":5126,
			"count":264,
			"type":"VEC3"
		},
		{
			"bufferView":29,
			"componentType":5123,
			"count":564,
			"type":"SCALAR"
		},
		{
			"bufferView":30,
			"componentType":5126,
			"count":128,
			"max":[
				9.945647239685059,
				5.091355800628662,
				0.3988422453403473
			],
			"min":[
				6.428345680236816,
				4.584656238555908,
				-0.35072264075279236
			],
			"type":"VEC3"
		},
		{
			"bufferView":31,
			"componentType":5126,
			"count":128,
			"type":"VEC3"
		},
		{
			"bufferView":32,
			"componentType":5123,
			"count":756,
			"type":"SCALAR"
		},
		{
			"bufferView":33,
			"componentType":5126,
			"count":128,
			"max":[
				9.955659866333008,
				6.081178665161133,
				0.5568758845329285
			],
			"min":[
				3.3202338218688965,
				5.330275535583496,
				-0.5539414286613464
			],
			"type":"VEC3"
		},
		{
			"bufferView":34,
			"componentType":5126,
			"count":128,
			"type":"VEC3"
		},
		{
			"bufferView":35,
			"componentType":5123,
			"count":756,
			"type":"SCALAR"
		},
		{
			"bufferView":36,
			"componentType":5126,
			"count":30,
			"max":[
				5.823977470397949,
				6.1515727043151855,
				0.8787320256233215
			],
			"min":[
				3.497971534729004,
				5.487266540527344,
				-0.7123523950576782
			],
			"type":"VEC3"
		},
		{
			"bufferView":37,
			"componentType":5126,
			"count":30,
			"type":"VEC3"
		},
		{
			"bufferView":38,
			"componentType":5123,
			"count":105,
			"type":"SCALAR"
		},
		{
			"bufferView":39,
			"componentType":5126,
			"count":1382,
			"max":[
				9.779823303222656,
				6.567673683166504,
				1.0288655757904053
			],
			"min":[
				-0.8643856644630432,
				4.489634037017822,
				-1.0343352556228638
			],
			"type":"VEC3"
		},
		{
			"bufferView":40,
			"componentType":5126,
			"count":1382,
			"type":"VEC3"
		},
		{
			"bufferView":41,
			"componentType":5123,
			"count":2757,
			"type":"SCALAR"
		},
		{
			"bufferView":42,
			"componentType":5126,
			"count":192,
			"max":[
				9.317458152770996,
				6.472131729125977,
				0.11830788850784302
			],
			"min":[
				9.19493579864502,
				6.300966262817383,
				-0.134898841381073
			],
			"type":"VEC3"
		},
		{
			"bufferView":43,
			"componentType":5126,
			"count":192,
			"type":"VEC3"
		},
		{
			"bufferView":44,
			"componentType":5123,
			"count":372,
			"type":"SCALAR"
		},
		{
			"bufferView":45,
			"componentType":5126,
			"count":192,
			"max":[
				-0.0016584396362304688,
				6.47213077545166,
				0.7340582609176636
			],
			"min":[
				-0.3031730651855469,
				6.300965309143066,
				0.48085156083106995
			],
			"type":"VEC3"
		},
		{
			"bufferView":46,
			"componentType":5126,
			"count":192,
			"type":"VEC3"
		},
		{
			"bufferView":47,
			"componentType":5126,
			"count":192,
			"max":[
				-0.0016584396362304688,
				6.47213077545166,
				-0.5170886516571045
			],
			"min":[
				-0.3031730651855469,
				6.300965309143066,
				-0.7702953815460205
			],
			"type":"VEC3"
		},
		{
			"bufferView":48,
			"componentType":5126,
			"count":192,
			"type":"VEC3"
		},
		{
			"bufferView":49,
			"componentType":5126,
			"count":32,
			"max":[
				9.202341079711914,
				3.1917219161987305,
				1.511479377746582
			],
			"min":[
				9.202341079711914,
				2.9988059997558594,
				1.2260973453521729
			],
			"type":"VEC3"
		},
		{
			"bufferView":50,
			"componentType":5126,
			"count":32,
			"type":"VEC3"
		},
		{
			"bufferView":51,
			"componentType":5126,
			"count":567,
			"max":[
				2.6646411418914795,
				5.289342880249023,
				0.5713950991630554
			],
			"min":[
				1.949474573135376,
				3.6822941303253174,
				-0.5533563494682312
			],
			"type":"VEC3"
		},
		{
			"bufferView":52,
			"componentType":5126,
			"count":567,
			"type":"VEC3"
		},
		{
			"bufferView":53,
			"componentType":5123,
			"count":3366,
			"type":"SCALAR"
		}
	],
	"bufferViews":[
		{
			"buffer":0,
			"byteLength":18696840,
			"byteOffset":0,
			"target":34962
		},
		{
			"buffer":0,
			"byteLength":18696840,
			"byteOffset":18696840,
			"target":34962
		},
		{
			"buffer":0,
			"byteLength":15637872,
			"byteOffset":37393680,
			"target":34963
		},
		{
			"buffer":0,
			"byteLength":3132,
			"byteOffset":53031552,
			"target":34962
		},
		{
			"buffer":0,
			"byteLength":3132,
			"byteOffset":53034684,
			"target":34962
		},
		{
			"buffer":0,
			"byteLength":1320,
			"byteOffset":53037816,
			"target":34963
		},
		{
			"buffer":0,
			"byteLength":1056,
			"byteOffset":53039136,
			"target":34962
		},
		{
			"buffer":0,
			"byteLength":1056,
			"byteOffset":53040192,
			"target":34962
		},
		{
			"buffer":0,
			"byteLength":1032,
			"byteOffset":53041248,
			"target":34963
		},
		{
			"buffer":0,
			"byteLength":5760,
			"byteOffset":53042280,
			"target":34962
		},
		{
			"buffer":0,
			"byteLength":5760,
			"byteOffset":53048040,
			"target":34962
		},
		{
			"buffer":0,
			"byteLength":5688,
			"byteOffset":53053800,
			"target":34963
		},
		{
			"buffer":0,
			"byteLength":3072,
			"byteOffset":53059488,
			"target":34962
		},
		{
			"buffer":0,
			"byteLength":3072,
			"byteOffset":53062560,
			"target":34962
		},
		{
			"buffer":0,
			"byteLength":3048,
			"byteOffset":53065632,
			"target":34963
		},
		{
			"buffer":0,
			"byteLength":288,
			"byteOffset":53068680,
			"target":34962
		},
		{
			"buffer":0,
			"byteLength":288,
			"byteOffset":53068968,
			"target":34962
		},
		{
			"buffer":0,
			"byteLength":72,
			"byteOffset":53069256,
			"target":34963
		},
		{
			"buffer":0,
			"byteLength":384,
			"byteOffset":53069328,
			"target":34962
		},
		{
			"buffer":0,
			"byteLength":384,
			"byteOffset":53069712,
			"target":34962
		},
		{
			"buffer":0,
			"byteLength":180,
			"byteOffset":53070096,
			"target":34963
		},
		{
			"buffer":0,
			"byteLength":29664,
			"byteOffset":53070276,
			"target":34962
		},
		{
			"buffer":0,
			"byteLength":29664,
			"byteOffset":53099940,
			"target":34962
		},
		{
			"buffer":0,
			"byteLength":10764,
			"byteOffset":53129604,
			"target":34963
		},
		{
			"buffer":0,
			"byteLength":3012,
			"byteOffset":53140368,
			"target":34962
		},
		{
			"buffer":0,
			"byteLength":3012,
			"byteOffset":53143380,
			"target":34962
		},
		{
			"buffer":0,
			"byteLength":1272,
			"byteOffset":53146392,
			"target":34963
		},
		{
			"buffer":0,
			"byteLength":3168,
			"byteOffset":53147664,
			"target":34962
		},
		{
			"buffer":0,
			"byteLength":3168,
			"byteOffset":53150832,
			"target":34962
		},
		{
			"buffer":0,
			"byteLength":1128,
			"byteOffset":53154000,
			"target":34963
		},
		{
			"buffer":0,
			"byteLength":1536,
			"byteOffset":53155128,
			"target":34962
		},
		{
			"buffer":0,
			"byteLength":1536,
			"byteOffset":53156664,
			"target":34962
		},
		{
			"buffer":0,
			"byteLength":1512,
			"byteOffset":53158200,
			"target":34963
		},
		{
			"buffer":0,
			"byteLength":1536,
			"byteOffset":53159712,
			"target":34962
		},
		{
			"buffer":0,
			"byteLength":1536,
			"byteOffset":53161248,
			"target":34962
		},
		{
			"buffer":0,
			"byteLength":1512,
			"byteOffset":53162784,
			"target":34963
		},
		{
			"buffer":0,
			"byteLength":360,
			"byteOffset":53164296,
			"target":34962
		},
		{
			"buffer":0,
			"byteLength":360,
			"byteOffset":53164656,
			"target":34962
		},
		{
			"buffer":0,
			"byteLength":210,
			"byteOffset":53165016,
			"target":34963
		},
		{
			"buffer":0,
			"byteLength":16584,
			"byteOffset":53165228,
			"target":34962
		},
		{
			"buffer":0,
			"byteLength":16584,
			"byteOffset":53181812,
			"target":34962
		},
		{
			"buffer":0,
			"byteLength":5514,
			"byteOffset":53198396,
			"target":34963
		},
		{
			"buffer":0,
			"byteLength":2304,
			"byteOffset":53203912,
			"target":34962
		},
		{
			"buffer":0,
			"byteLength":2304,
			"byteOffset":53206216,
			"target":34962
		},
		{
			"buffer":0,
			"byteLength":744,
			"byteOffset":53208520,
			"target":34963
		},
		{
			"buffer":0,
			"byteLength":2304,
			"byteOffset":53209264,
			"target":34962
		},
		{
			"buffer":0,
			"byteLength":2304,
			"byteOffset":53211568,
			"target":34962
		},
		{
			"buffer":0,
			"byteLength":2304,
			"byteOffset":53213872,
			"target":34962
		},
		{
			"buffer":0,
			"byteLength":2304,
			"byteOffset":53216176,
			"target":34962
		},
		{
			"buffer":0,
			"byteLength":384,
			"byteOffset":53218480,
			"target":34962
		},
		{
			"buffer":0,
			"byteLength":384,
			"byteOffset":53218864,
			"target":34962
		},
		{
			"buffer":0,
			"byteLength":6804,
			"byteOffset":53219248,
			"target":34962
		},
		{
			"buffer":0,
			"byteLength":6804,
			"byteOffset":53226052,
			"target":34962
		},
		{
			"buffer":0,
			"byteLength":6732,
			"byteOffset":53232856,
			"target":34963
		}
	],
	"buffers":[
		{
			"byteLength":53239588,
			"uri":"Glock18.bin"
		}
	]
}
