{
	"asset":{
		"generator":"Khronos glTF Blender I/O v4.5.47",
		"version":"2.0"
	},
	"scene":0,
	"scenes":[
		{
			"name":"Scene",
			"nodes":[
				0
			]
		}
	],
	"nodes":[
		{
			"mesh":0,
			"name":"Suzanne",
			"translation":[
				0,
				2.6022748947143555,
				0
			]
		}
	],
	"meshes":[
		{
			"name":"Suzanne",
			"primitives":[
				{
					"attributes":{
						"POSITION":0,
						"NORMAL":1,
						"TEXCOORD_0":2
					},
					"indices":3
				}
			]
		}
	],
	"accessors":[
		{
			"bufferView":0,
			"componentType":5126,
			"count":125952,
			"max":[
				2.698906898498535,
				3.1202759742736816,
				4.732822895050049
			],
			"min":[
				-4.496735095977783,
				-3.4328553676605225,
				-2.832854986190796
			],
			"type":"VEC3"
		},
		{
			"bufferView":1,
			"componentType":5126,
			"count":125952,
			"type":"VEC3"
		},
		{
			"bufferView":2,
			"componentType":5126,
			"count":125952,
			"type":"VEC2"
		},
		{
			"bufferView":3,
			"componentType":5125,
			"count":188928,
			"type":"SCALAR"
		}
	],
	"bufferViews":[
		{
			"buffer":0,
			"byteLength":1511424,
			"byteOffset":0,
			"target":34962
		},
		{
			"buffer":0,
			"byteLength":1511424,
			"byteOffset":1511424,
			"target":34962
		},
		{
			"buffer":0,
			"byteLength":1007616,
			"byteOffset":3022848,
			"target":34962
		},
		{
			"buffer":0,
			"byteLength":755712,
			"byteOffset":4030464,
			"target":34963
		}
	],
	"buffers":[
		{
			"byteLength":4786176,
			"uri":"monk.bin"
		}
	]
}
