{
	"asset":{
		"generator":"Khronos glTF Blender I/O v4.5.47",
		"version":"2.0"
	},
	"scene":0,
	"scenes":[
		{
			"name":"Scene",
			"nodes":[
				0
			]
		}
	],
	"nodes":[
		{
			"mesh":0,
			"name":"Cube",
			"scale":[
				0.3525323271751404,
				0.2627170979976654,
				0.3525323271751404
			],
			"translation":[
				0,
				0.4077671766281128,
				0
			]
		}
	],
	"materials":[
		{
			"doubleSided":true,
			"name":"Material",
			"pbrMetallicRoughness":{
				"metallicFactor":0,
				"roughnessFactor":0.5
			}
		}
	],
	"meshes":[
		{
			"name":"Cube",
			"primitives":[
				{
					"attributes":{
						"POSITION":0,
						"NORMAL":1,
						"TEXCOORD_0":2,
						"COLOR_0":3
					},
					"indices":4,
					"material":0
				}
			]
		}
	],
	"accessors":[
		{
			"bufferView":0,
			"componentType":5126,
			"count":210350,
			"max":[
				1.4006507396697998,
				15.231553077697754,
				4.266320705413818
			],
			"min":[
				-1.4089494943618774,
				-0.9898186922073364,
				-4.181235313415527
			],
			"type":"VEC3"
		},
		{
			"bufferView":1,
			"componentType":5126,
			"count":210350,
			"type":"VEC3"
		},
		{
			"bufferView":2,
			"componentType":5126,
			"count":210350,
			"type":"VEC2"
		},
		{
			"bufferView":3,
			"componentType":5126,
			"count":210350,
			"type":"VEC3"
		},
		{
			"bufferView":4,
			"componentType":5125,
			"count":316416,
			"type":"SCALAR"
		}
	],
	"bufferViews":[
		{
			"buffer":0,
			"byteLength":2524200,
			"byteOffset":0,
			"target":34962
		},
		{
			"buffer":0,
			"byteLength":2524200,
			"byteOffset":2524200,
			"target":34962
		},
		{
			"buffer":0,
			"byteLength":1682800,
			"byteOffset":5048400,
			"target":34962
		},
		{
			"buffer":0,
			"byteLength":2524200,
			"byteOffset":6731200,
			"target":34962
		},
		{
			"buffer":0,
			"byteLength":1265664,
			"byteOffset":9255400,
			"target":34963
		}
	],
	"buffers":[
		{
			"byteLength":10521064,
			"uri":"saguaro.bin"
		}
	]
}
