{
	"asset":{
		"generator":"Khronos glTF Blender I/O v4.5.47",
		"version":"2.0"
	},
	"scene":0,
	"scenes":[
		{
			"name":"Scene",
			"nodes":[
				0
			]
		}
	],
	"nodes":[
		{
			"mesh":0,
			"name":"Torus"
		}
	],
	"materials":[
		{
			"doubleSided":true,
			"name":"Material.001",
			"pbrMetallicRoughness":{
				"baseColorFactor":[
					0.327489972114563,
					0.5055191516876221,
					0.801809549331665,
					1
				],
				"metallicFactor":0,
				"roughnessFactor":0.5
			}
		}
	],
	"meshes":[
		{
			"name":"Torus",
			"primitives":[
				{
					"attributes":{
						"POSITION":0,
						"NORMAL":1,
						"TEXCOORD_0":2
					},
					"indices":3,
					"material":0
				}
			]
		}
	],
	"accessors":[
		{
			"bufferView":0,
			"componentType":5126,
			"count":6488,
			"max":[
				1.7470415830612183,
				1.682510256767273,
				0.9617157578468323
			],
			"min":[
				-1.5338488817214966,
				-1.6007813215255737,
				-0.8420639634132385
			],
			"type":"VEC3"
		},
		{
			"bufferView":1,
			"componentType":5126,
			"count":6488,
			"type":"VEC3"
		},
		{
			"bufferView":2,
			"componentType":5126,
			"count":6488,
			"type":"VEC2"
		},
		{
			"bufferView":3,
			"componentType":5123,
			"count":15576,
			"type":"SCALAR"
		}
	],
	"bufferViews":[
		{
			"buffer":0,
			"byteLength":77856,
			"byteOffset":0,
			"target":34962
		},
		{
			"buffer":0,
			"byteLength":77856,
			"byteOffset":77856,
			"target":34962
		},
		{
			"buffer":0,
			"byteLength":51904,
			"byteOffset":155712,
			"target":34962
		},
		{
			"buffer":0,
			"byteLength":31152,
			"byteOffset":207616,
			"target":34963
		}
	],
	"buffers":[
		{
			"byteLength":238768,
			"uri":"spike_torus.bin"
		}
	]
}
