{
	"asset":{
		"generator":"Khronos glTF Blender I/O v4.5.47",
		"version":"2.0"
	},
	"scene":0,
	"scenes":[
		{
			"name":"Scene",
			"nodes":[
				0
			]
		}
	],
	"nodes":[
		{
			"mesh":0,
			"name":"Torus"
		}
	],
	"meshes":[
		{
			"name":"Torus",
			"primitives":[
				{
					"attributes":{
						"POSITION":0,
						"NORMAL":1,
						"TEXCOORD_0":2
					},
					"indices":3
				}
			]
		}
	],
	"accessors":[
		{
			"bufferView":0,
			"componentType":5126,
			"count":4690,
			"max":[
				2.417121648788452,
				0.4834243357181549,
				2.417121648788452
			],
			"min":[
				-2.417121648788452,
				-0.4834243357181549,
				-2.417121648788452
			],
			"type":"VEC3"
		},
		{
			"bufferView":1,
			"componentType":5126,
			"count":4690,
			"type":"VEC3"
		},
		{
			"bufferView":2,
			"componentType":5126,
			"count":4690,
			"type":"VEC2"
		},
		{
			"bufferView":3,
			"componentType":5123,
			"count":10368,
			"type":"SCALAR"
		}
	],
	"bufferViews":[
		{
			"buffer":0,
			"byteLength":56280,
			"byteOffset":0,
			"target":34962
		},
		{
			"buffer":0,
			"byteLength":56280,
			"byteOffset":56280,
			"target":34962
		},
		{
			"buffer":0,
			"byteLength":37520,
			"byteOffset":112560,
			"target":34962
		},
		{
			"buffer":0,
			"byteLength":20736,
			"byteOffset":150080,
			"target":34963
		}
	],
	"buffers":[
		{
			"byteLength":170816,
			"uri":"torus.bin"
		}
	]
}
