{
	"asset":{
		"generator":"Khronos glTF Blender I/O v4.5.47",
		"version":"2.0"
	},
	"scene":0,
	"scenes":[
		{
			"name":"Scene",
			"nodes":[
				0
			]
		}
	],
	"nodes":[
		{
			"mesh":0,
			"name":"Wall"
		}
	],
	"meshes":[
		{
			"name":"Wall",
			"primitives":[
				{
					"attributes":{
						"POSITION":0,
						"NORMAL":1
					},
					"indices":2
				}
			]
		}
	],
	"accessors":[
		{
			"bufferView":0,
			"componentType":5126,
			"count":195712,
			"max":[
				5.659799098968506,
				38.126461029052734,
				5.961108207702637
			],
			"min":[
				-5.434081554412842,
				0.04628777503967285,
				-5.125380992889404
			],
			"type":"VEC3"
		},
		{
			"bufferView":1,
			"componentType":5126,
			"count":195712,
			"type":"VEC3"
		},
		{
			"bufferView":2,
			"componentType":5125,
			"count":269232,
			"type":"SCALAR"
		}
	],
	"bufferViews":[
		{
			"buffer":0,
			"byteLength":2348544,
			"byteOffset":0,
			"target":34962
		},
		{
			"buffer":0,
			"byteLength":2348544,
			"byteOffset":2348544,
			"target":34962
		},
		{
			"buffer":0,
			"byteLength":1076928,
			"byteOffset":4697088,
			"target":34963
		}
	],
	"buffers":[
		{
			"byteLength":5774016,
			"uri":"tower.bin"
		}
	]
}
