{
	"asset":{
		"generator":"Khronos glTF Blender I/O v4.5.47",
		"version":"2.0"
	},
	"scene":0,
	"scenes":[
		{
			"name":"Scene",
			"nodes":[
				0
			]
		}
	],
	"nodes":[
		{
			"mesh":0,
			"name":"Wall.001"
		}
	],
	"meshes":[
		{
			"name":"Wall.008",
			"primitives":[
				{
					"attributes":{
						"POSITION":0,
						"NORMAL":1
					},
					"indices":2
				}
			]
		}
	],
	"accessors":[
		{
			"bufferView":0,
			"componentType":5126,
			"count":64084,
			"max":[
				81.44007110595703,
				32.99321365356445,
				1.4120802879333496
			],
			"min":[
				-10.254934310913086,
				0.04535705968737602,
				-1.4120802879333496
			],
			"type":"VEC3"
		},
		{
			"bufferView":1,
			"componentType":5126,
			"count":64084,
			"type":"VEC3"
		},
		{
			"bufferView":2,
			"componentType":5123,
			"count":96462,
			"type":"SCALAR"
		}
	],
	"bufferViews":[
		{
			"buffer":0,
			"byteLength":769008,
			"byteOffset":0,
			"target":34962
		},
		{
			"buffer":0,
			"byteLength":769008,
			"byteOffset":769008,
			"target":34962
		},
		{
			"buffer":0,
			"byteLength":192924,
			"byteOffset":1538016,
			"target":34963
		}
	],
	"buffers":[
		{
			"byteLength":1730940,
			"uri":"wall.bin"
		}
	]
}
